<?xml version="1.0" encoding="utf-8"?>
<!-- Generator: Adobe Illustrator 16.0.0, SVG Export Plug-In . SVG Version: 6.00 Build 0)  -->
<!DOCTYPE svg PUBLIC "-//W3C//DTD SVG 1.1//EN" "http://www.w3.org/Graphics/SVG/1.1/DTD/svg11.dtd">
<svg version="1.1" id="artwork" xmlns="http://www.w3.org/2000/svg" xmlns:xlink="http://www.w3.org/1999/xlink" x="0px" y="0px"
	 width="155px" height="60px" viewBox="0 0 155 60" enable-background="new 0 0 155 60" xml:space="preserve">
<g>
	<rect fill="#FFFFFF" fill-opacity="0" width="155" height="60"/>
	<g>
		<path d="M140,50H15c-2.75,0-5-2.25-5-5V15c0-2.75,2.25-5,5-5h125c2.75,0,5,2.25,5,5v30C145,47.75,142.75,50,140,50z"/>
	</g>
	<g>
		<g>
			<path fill="#A6A6A6" d="M140,10.8c2.316,0,4.2,1.884,4.2,4.2v30c0,2.316-1.884,4.2-4.2,4.2H15c-2.316,0-4.2-1.884-4.2-4.2V15
				c0-2.316,1.884-4.2,4.2-4.2H140 M140,10H15c-2.75,0-5,2.25-5,5v30c0,2.75,2.25,5,5,5h125c2.75,0,5-2.25,5-5V15
				C145,12.25,142.75,10,140,10L140,10z"/>
		</g>
	</g>
	<g>
		<path fill="#FFFFFF" stroke="#FFFFFF" stroke-width="0.2" stroke-miterlimit="10" d="M57.418,20.243
			c0,0.838-0.248,1.505-0.745,2.003c-0.564,0.592-1.3,0.888-2.204,0.888c-0.866,0-1.603-0.3-2.208-0.9
			c-0.606-0.601-0.909-1.345-0.909-2.233c0-0.889,0.303-1.633,0.909-2.233c0.605-0.601,1.342-0.901,2.208-0.901
			c0.43,0,0.841,0.084,1.231,0.251c0.391,0.168,0.704,0.391,0.938,0.67l-0.527,0.528c-0.397-0.475-0.944-0.712-1.643-0.712
			c-0.632,0-1.178,0.222-1.639,0.666s-0.691,1.021-0.691,1.73s0.23,1.286,0.691,1.73s1.007,0.666,1.639,0.666
			c0.67,0,1.229-0.223,1.676-0.67c0.29-0.291,0.458-0.696,0.503-1.215h-2.179v-0.721h2.907
			C57.405,19.947,57.418,20.098,57.418,20.243z"/>
		<path fill="#FFFFFF" stroke="#FFFFFF" stroke-width="0.2" stroke-miterlimit="10" d="M62.028,17.737h-2.732v1.902h2.464v0.721
			h-2.464v1.902h2.732V23h-3.503v-6h3.503V17.737z"/>
		<path fill="#FFFFFF" stroke="#FFFFFF" stroke-width="0.2" stroke-miterlimit="10" d="M65.279,23h-0.771v-5.263h-1.676V17h4.123
			v0.737h-1.676V23z"/>
		<path fill="#FFFFFF" stroke="#FFFFFF" stroke-width="0.2" stroke-miterlimit="10" d="M69.938,23v-6h0.771v6H69.938z"/>
		<path fill="#FFFFFF" stroke="#FFFFFF" stroke-width="0.2" stroke-miterlimit="10" d="M74.128,23h-0.771v-5.263h-1.676V17h4.123
			v0.737h-1.676V23z"/>
		<path fill="#FFFFFF" stroke="#FFFFFF" stroke-width="0.2" stroke-miterlimit="10" d="M83.609,22.225
			c-0.59,0.606-1.323,0.909-2.2,0.909s-1.61-0.303-2.199-0.909c-0.59-0.606-0.884-1.348-0.884-2.225s0.294-1.619,0.884-2.225
			c0.589-0.606,1.322-0.91,2.199-0.91c0.872,0,1.604,0.305,2.196,0.914c0.592,0.609,0.888,1.349,0.888,2.221
			C84.493,20.877,84.198,21.619,83.609,22.225z M79.779,21.722c0.444,0.45,0.987,0.674,1.63,0.674s1.187-0.225,1.63-0.674
			c0.444-0.45,0.667-1.024,0.667-1.722s-0.223-1.272-0.667-1.722c-0.443-0.45-0.987-0.674-1.63-0.674s-1.186,0.225-1.63,0.674
			c-0.443,0.45-0.666,1.024-0.666,1.722S79.336,21.272,79.779,21.722z"/>
		<path fill="#FFFFFF" stroke="#FFFFFF" stroke-width="0.2" stroke-miterlimit="10" d="M85.575,23v-6h0.938l2.916,4.667h0.033
			l-0.033-1.156V17h0.771v6h-0.805l-3.051-4.894h-0.033l0.033,1.156V23H85.575z"/>
	</g>
	<path fill="#FFFFFF" d="M78.136,31.751c-2.352,0-4.269,1.789-4.269,4.253c0,2.449,1.917,4.253,4.269,4.253
		c2.353,0,4.27-1.804,4.27-4.253C82.405,33.54,80.488,31.751,78.136,31.751z M78.136,38.583c-1.289,0-2.4-1.063-2.4-2.578
		c0-1.531,1.112-2.578,2.4-2.578c1.289,0,2.4,1.047,2.4,2.578C80.536,37.519,79.425,38.583,78.136,38.583z M68.822,31.751
		c-2.352,0-4.269,1.789-4.269,4.253c0,2.449,1.917,4.253,4.269,4.253c2.353,0,4.27-1.804,4.27-4.253
		C73.092,33.54,71.175,31.751,68.822,31.751z M68.822,38.583c-1.289,0-2.4-1.063-2.4-2.578c0-1.531,1.112-2.578,2.4-2.578
		c1.289,0,2.4,1.047,2.4,2.578C71.223,37.519,70.111,38.583,68.822,38.583z M57.744,33.057v1.804h4.318
		c-0.129,1.015-0.467,1.756-0.983,2.271c-0.628,0.628-1.611,1.321-3.335,1.321c-2.658,0-4.736-2.143-4.736-4.801
		s2.078-4.801,4.736-4.801c1.434,0,2.481,0.564,3.254,1.289l1.273-1.273c-1.08-1.031-2.513-1.82-4.527-1.82
		c-3.641,0-6.702,2.964-6.702,6.605c0,3.641,3.061,6.605,6.702,6.605c1.965,0,3.448-0.645,4.607-1.853
		c1.192-1.192,1.563-2.868,1.563-4.221c0-0.418-0.032-0.805-0.097-1.127H57.744z M103.052,34.458
		c-0.354-0.95-1.434-2.707-3.641-2.707c-2.191,0-4.012,1.724-4.012,4.253c0,2.384,1.805,4.253,4.221,4.253
		c1.949,0,3.077-1.192,3.545-1.885l-1.45-0.967c-0.483,0.709-1.144,1.176-2.095,1.176c-0.95,0-1.627-0.435-2.062-1.289l5.687-2.352
		L103.052,34.458z M97.252,35.876c-0.048-1.644,1.273-2.481,2.224-2.481c0.741,0,1.369,0.371,1.579,0.902L97.252,35.876z M92.629,40
		h1.868V27.499h-1.868V40z M89.567,32.702h-0.064c-0.419-0.5-1.225-0.951-2.239-0.951c-2.127,0-4.076,1.869-4.076,4.27
		c0,2.384,1.949,4.237,4.076,4.237c1.015,0,1.82-0.451,2.239-0.966h0.064v0.612c0,1.627-0.87,2.497-2.271,2.497
		c-1.144,0-1.853-0.821-2.143-1.514l-1.627,0.677c0.467,1.127,1.707,2.513,3.77,2.513c2.191,0,4.044-1.289,4.044-4.431v-7.636
		h-1.772V32.702z M87.425,38.583c-1.289,0-2.368-1.08-2.368-2.562c0-1.499,1.079-2.594,2.368-2.594c1.272,0,2.271,1.095,2.271,2.594
		C89.696,37.503,88.697,38.583,87.425,38.583z M111.806,27.499h-4.471V40h1.865v-4.736h2.605c2.068,0,4.102-1.497,4.102-3.882
		S113.874,27.499,111.806,27.499z M111.854,33.524H109.2v-4.285h2.654c1.395,0,2.187,1.155,2.187,2.143
		C114.041,32.35,113.249,33.524,111.854,33.524z M123.386,31.729c-1.351,0-2.75,0.595-3.329,1.914l1.656,0.691
		c0.354-0.691,1.014-0.917,1.705-0.917c0.965,0,1.946,0.579,1.962,1.608v0.129c-0.338-0.193-1.062-0.482-1.946-0.482
		c-1.785,0-3.603,0.981-3.603,2.814c0,1.673,1.464,2.75,3.104,2.75c1.254,0,1.946-0.563,2.38-1.223h0.064v0.965h1.802v-4.793
		C127.182,32.967,125.524,31.729,123.386,31.729z M123.16,38.58c-0.61,0-1.463-0.306-1.463-1.062c0-0.965,1.062-1.335,1.979-1.335
		c0.819,0,1.206,0.177,1.704,0.418C125.235,37.76,124.238,38.58,123.16,38.58z M133.743,32.002l-2.139,5.42h-0.064l-2.22-5.42h-2.01
		l3.329,7.575l-1.898,4.214h1.946l5.131-11.789H133.743z M116.937,40h1.865V27.499h-1.865V40z"/>
	<g>
		
			<linearGradient id="SVGID_1_" gradientUnits="userSpaceOnUse" x1="31.8008" y1="183.291" x2="15.0188" y2="166.509" gradientTransform="matrix(1 0 0 -1 0 202)">
			<stop  offset="0" style="stop-color:#00A0FF"/>
			<stop  offset="0.0066" style="stop-color:#00A1FF"/>
			<stop  offset="0.2601" style="stop-color:#00BEFF"/>
			<stop  offset="0.5122" style="stop-color:#00D2FF"/>
			<stop  offset="0.7604" style="stop-color:#00DFFF"/>
			<stop  offset="1" style="stop-color:#00E3FF"/>
		</linearGradient>
		<path fill="url(#SVGID_1_)" d="M20.436,17.538c-0.291,0.308-0.463,0.786-0.463,1.405v22.116c0,0.62,0.172,1.097,0.463,1.405
			l0.074,0.072l12.389-12.389v-0.146v-0.146l-12.389-12.39L20.436,17.538z"/>
		
			<linearGradient id="SVGID_2_" gradientUnits="userSpaceOnUse" x1="43.8335" y1="171.999" x2="19.6376" y2="171.999" gradientTransform="matrix(1 0 0 -1 0 202)">
			<stop  offset="0" style="stop-color:#FFE000"/>
			<stop  offset="0.4087" style="stop-color:#FFBD00"/>
			<stop  offset="0.7754" style="stop-color:#FFA500"/>
			<stop  offset="1" style="stop-color:#FF9C00"/>
		</linearGradient>
		<path fill="url(#SVGID_2_)" d="M37.028,34.278l-4.129-4.131v-0.146v-0.146l4.13-4.13l0.093,0.053l4.893,2.78
			c1.397,0.794,1.397,2.093,0,2.888l-4.893,2.78L37.028,34.278z"/>
		
			<linearGradient id="SVGID_3_" gradientUnits="userSpaceOnUse" x1="34.8281" y1="169.7051" x2="12.0696" y2="146.9466" gradientTransform="matrix(1 0 0 -1 0 202)">
			<stop  offset="0" style="stop-color:#FF3A44"/>
			<stop  offset="1" style="stop-color:#C31162"/>
		</linearGradient>
		<path fill="url(#SVGID_3_)" d="M37.122,34.225l-4.224-4.224L20.436,42.464c0.46,0.488,1.221,0.548,2.078,0.062L37.122,34.225"/>
		
			<linearGradient id="SVGID_4_" gradientUnits="userSpaceOnUse" x1="17.2974" y1="191.8232" x2="27.4597" y2="181.6609" gradientTransform="matrix(1 0 0 -1 0 202)">
			<stop  offset="0" style="stop-color:#32A071"/>
			<stop  offset="0.0685" style="stop-color:#2DA771"/>
			<stop  offset="0.4762" style="stop-color:#15CF74"/>
			<stop  offset="0.8009" style="stop-color:#06E775"/>
			<stop  offset="1" style="stop-color:#00F076"/>
		</linearGradient>
		<path fill="url(#SVGID_4_)" d="M37.122,25.777l-14.608-8.3c-0.857-0.487-1.618-0.426-2.078,0.062l12.463,12.463L37.122,25.777z"/>
		<g>
			<path opacity="0.2" enable-background="new    " d="M37.029,34.132l-14.515,8.248c-0.812,0.461-1.538,0.43-2.004,0.011l0,0
				l-0.074,0.074l0,0l0.074,0.072l0,0c0.466,0.42,1.192,0.451,2.004-0.011l14.608-8.3L37.029,34.132z"/>
			<path opacity="0.12" enable-background="new    " d="M20.436,42.318c-0.291-0.308-0.463-0.786-0.463-1.405v0.146
				c0,0.619,0.172,1.097,0.463,1.405l0.074-0.074L20.436,42.318z"/>
		</g>
		<path opacity="0.12" enable-background="new    " d="M42.015,31.299l-4.986,2.833l0.093,0.093l4.893-2.78
			c0.699-0.397,1.048-0.92,1.048-1.443l0,0C43.004,30.475,42.648,30.938,42.015,31.299z"/>
		<path opacity="0.25" fill="#FFFFFF" enable-background="new    " d="M22.514,17.623l19.501,11.08
			c0.634,0.36,0.989,0.824,1.048,1.298l0,0c0-0.523-0.349-1.047-1.048-1.444l-19.501-11.08c-1.398-0.794-2.541-0.134-2.541,1.466
			v0.146C19.973,17.489,21.116,16.829,22.514,17.623z"/>
	</g>
</g>
</svg>
