<?xml version="1.0" encoding="utf-8"?>
<!-- Generator: Adobe Illustrator 16.0.0, SVG Export Plug-In . SVG Version: 6.00 Build 0)  -->
<!DOCTYPE svg PUBLIC "-//W3C//DTD SVG 1.1//EN" "http://www.w3.org/Graphics/SVG/1.1/DTD/svg11.dtd">
<svg version="1.1" id="artwork" xmlns="http://www.w3.org/2000/svg" xmlns:xlink="http://www.w3.org/1999/xlink" x="0px" y="0px"
	 width="155px" height="60px" viewBox="0 0 155 60" enable-background="new 0 0 155 60" xml:space="preserve">
<g>
	<rect fill="#FFFFFF" fill-opacity="0" width="155" height="60"/>
	<g>
		<path d="M140,50H15c-2.75,0-5-2.25-5-5V15c0-2.75,2.25-5,5-5h125c2.75,0,5,2.25,5,5v30C145,47.75,142.75,50,140,50z"/>
	</g>
	<g>
		<g>
			<path fill="#A6A6A6" d="M140,10.8c2.316,0,4.2,1.884,4.2,4.2v30c0,2.316-1.884,4.2-4.2,4.2H15c-2.316,0-4.2-1.884-4.2-4.2V15
				c0-2.316,1.884-4.2,4.2-4.2H140 M140,10H15c-2.75,0-5,2.25-5,5v30c0,2.75,2.25,5,5,5h125c2.75,0,5-2.25,5-5V15
				C145,12.25,142.75,10,140,10L140,10z"/>
		</g>
	</g>
	<path fill="#FFFFFF" d="M78.136,31.751c-2.352,0-4.269,1.789-4.269,4.253c0,2.449,1.917,4.253,4.269,4.253
		c2.353,0,4.27-1.804,4.27-4.253C82.405,33.54,80.488,31.751,78.136,31.751z M78.136,38.583c-1.289,0-2.4-1.063-2.4-2.578
		c0-1.531,1.112-2.578,2.4-2.578c1.289,0,2.4,1.047,2.4,2.578C80.536,37.519,79.425,38.583,78.136,38.583z M68.822,31.751
		c-2.352,0-4.269,1.789-4.269,4.253c0,2.449,1.917,4.253,4.269,4.253c2.353,0,4.27-1.804,4.27-4.253
		C73.092,33.54,71.175,31.751,68.822,31.751z M68.822,38.583c-1.289,0-2.4-1.063-2.4-2.578c0-1.531,1.112-2.578,2.4-2.578
		c1.289,0,2.4,1.047,2.4,2.578C71.223,37.519,70.111,38.583,68.822,38.583z M57.744,33.057v1.804h4.318
		c-0.129,1.015-0.467,1.756-0.983,2.271c-0.628,0.628-1.611,1.321-3.335,1.321c-2.658,0-4.736-2.143-4.736-4.801
		s2.078-4.801,4.736-4.801c1.434,0,2.481,0.564,3.254,1.289l1.273-1.273c-1.08-1.031-2.513-1.82-4.527-1.82
		c-3.641,0-6.702,2.964-6.702,6.605c0,3.641,3.061,6.605,6.702,6.605c1.965,0,3.448-0.645,4.607-1.853
		c1.192-1.192,1.563-2.868,1.563-4.221c0-0.418-0.032-0.805-0.097-1.127H57.744z M103.052,34.458
		c-0.354-0.95-1.434-2.707-3.641-2.707c-2.191,0-4.012,1.724-4.012,4.253c0,2.384,1.805,4.253,4.221,4.253
		c1.949,0,3.077-1.192,3.545-1.885l-1.45-0.967c-0.483,0.709-1.144,1.176-2.095,1.176c-0.95,0-1.627-0.435-2.062-1.289l5.687-2.352
		L103.052,34.458z M97.252,35.876c-0.048-1.644,1.273-2.481,2.224-2.481c0.741,0,1.369,0.371,1.579,0.902L97.252,35.876z M92.629,40
		h1.868V27.499h-1.868V40z M89.567,32.702h-0.064c-0.419-0.5-1.225-0.951-2.239-0.951c-2.127,0-4.076,1.869-4.076,4.27
		c0,2.384,1.949,4.237,4.076,4.237c1.015,0,1.82-0.451,2.239-0.966h0.064v0.612c0,1.627-0.87,2.497-2.271,2.497
		c-1.144,0-1.853-0.821-2.143-1.514l-1.627,0.677c0.467,1.127,1.707,2.513,3.77,2.513c2.191,0,4.044-1.289,4.044-4.431v-7.636
		h-1.772V32.702z M87.425,38.583c-1.289,0-2.368-1.08-2.368-2.562c0-1.499,1.079-2.594,2.368-2.594c1.272,0,2.271,1.095,2.271,2.594
		C89.696,37.503,88.697,38.583,87.425,38.583z M111.806,27.499h-4.471V40h1.865v-4.736h2.605c2.068,0,4.102-1.497,4.102-3.882
		S113.874,27.499,111.806,27.499z M111.854,33.524H109.2v-4.285h2.654c1.395,0,2.187,1.155,2.187,2.143
		C114.041,32.35,113.249,33.524,111.854,33.524z M123.386,31.729c-1.351,0-2.75,0.595-3.329,1.914l1.656,0.691
		c0.354-0.691,1.014-0.917,1.705-0.917c0.965,0,1.946,0.579,1.962,1.608v0.129c-0.338-0.193-1.062-0.482-1.946-0.482
		c-1.785,0-3.603,0.981-3.603,2.814c0,1.673,1.464,2.75,3.104,2.75c1.254,0,1.946-0.563,2.38-1.223h0.064v0.965h1.802v-4.793
		C127.182,32.967,125.524,31.729,123.386,31.729z M123.16,38.58c-0.61,0-1.463-0.306-1.463-1.062c0-0.965,1.062-1.335,1.979-1.335
		c0.819,0,1.206,0.177,1.704,0.418C125.235,37.76,124.238,38.58,123.16,38.58z M133.743,32.002l-2.139,5.42h-0.064l-2.22-5.42h-2.01
		l3.329,7.575l-1.898,4.214h1.946l5.131-11.789H133.743z M116.937,40h1.865V27.499h-1.865V40z"/>
	<g>
		
			<linearGradient id="SVGID_1_" gradientUnits="userSpaceOnUse" x1="31.8008" y1="183.291" x2="15.0188" y2="166.509" gradientTransform="matrix(1 0 0 -1 0 202)">
			<stop  offset="0" style="stop-color:#00A0FF"/>
			<stop  offset="0.0066" style="stop-color:#00A1FF"/>
			<stop  offset="0.2601" style="stop-color:#00BEFF"/>
			<stop  offset="0.5122" style="stop-color:#00D2FF"/>
			<stop  offset="0.7604" style="stop-color:#00DFFF"/>
			<stop  offset="1" style="stop-color:#00E3FF"/>
		</linearGradient>
		<path fill="url(#SVGID_1_)" d="M20.436,17.538c-0.291,0.308-0.463,0.786-0.463,1.405v22.116c0,0.62,0.172,1.097,0.463,1.405
			l0.074,0.072l12.389-12.389v-0.146v-0.146l-12.389-12.39L20.436,17.538z"/>
		
			<linearGradient id="SVGID_2_" gradientUnits="userSpaceOnUse" x1="43.8335" y1="171.999" x2="19.6376" y2="171.999" gradientTransform="matrix(1 0 0 -1 0 202)">
			<stop  offset="0" style="stop-color:#FFE000"/>
			<stop  offset="0.4087" style="stop-color:#FFBD00"/>
			<stop  offset="0.7754" style="stop-color:#FFA500"/>
			<stop  offset="1" style="stop-color:#FF9C00"/>
		</linearGradient>
		<path fill="url(#SVGID_2_)" d="M37.028,34.278l-4.129-4.131v-0.146v-0.146l4.13-4.13l0.093,0.053l4.893,2.78
			c1.397,0.794,1.397,2.093,0,2.888l-4.893,2.78L37.028,34.278z"/>
		
			<linearGradient id="SVGID_3_" gradientUnits="userSpaceOnUse" x1="34.8281" y1="169.7051" x2="12.0696" y2="146.9466" gradientTransform="matrix(1 0 0 -1 0 202)">
			<stop  offset="0" style="stop-color:#FF3A44"/>
			<stop  offset="1" style="stop-color:#C31162"/>
		</linearGradient>
		<path fill="url(#SVGID_3_)" d="M37.122,34.225l-4.224-4.224L20.436,42.464c0.46,0.488,1.221,0.548,2.078,0.062L37.122,34.225"/>
		
			<linearGradient id="SVGID_4_" gradientUnits="userSpaceOnUse" x1="17.2974" y1="191.8232" x2="27.4597" y2="181.6609" gradientTransform="matrix(1 0 0 -1 0 202)">
			<stop  offset="0" style="stop-color:#32A071"/>
			<stop  offset="0.0685" style="stop-color:#2DA771"/>
			<stop  offset="0.4762" style="stop-color:#15CF74"/>
			<stop  offset="0.8009" style="stop-color:#06E775"/>
			<stop  offset="1" style="stop-color:#00F076"/>
		</linearGradient>
		<path fill="url(#SVGID_4_)" d="M37.122,25.777l-14.608-8.3c-0.857-0.487-1.618-0.426-2.078,0.062l12.463,12.463L37.122,25.777z"/>
		<g>
			<path opacity="0.2" enable-background="new    " d="M37.029,34.132l-14.515,8.248c-0.812,0.461-1.538,0.43-2.004,0.011l0,0
				l-0.074,0.074l0,0l0.074,0.072l0,0c0.466,0.42,1.192,0.451,2.004-0.011l14.608-8.3L37.029,34.132z"/>
			<path opacity="0.12" enable-background="new    " d="M20.436,42.318c-0.291-0.308-0.463-0.786-0.463-1.405v0.146
				c0,0.619,0.172,1.097,0.463,1.405l0.074-0.074L20.436,42.318z"/>
		</g>
		<path opacity="0.12" enable-background="new    " d="M42.015,31.299l-4.986,2.833l0.093,0.093l4.893-2.78
			c0.699-0.397,1.048-0.92,1.048-1.443l0,0C43.004,30.475,42.648,30.938,42.015,31.299z"/>
		<path opacity="0.25" fill="#FFFFFF" enable-background="new    " d="M22.514,17.623l19.501,11.08
			c0.634,0.36,0.989,0.824,1.048,1.298l0,0c0-0.523-0.349-1.047-1.048-1.444l-19.501-11.08c-1.398-0.794-2.541-0.134-2.541,1.466
			v0.146C19.973,17.489,21.116,16.829,22.514,17.623z"/>
	</g>
</g>
<g>
	<path fill="#FFFFFF" stroke="#FFFFFF" stroke-width="0.2" stroke-miterlimit="10" d="M80.427,24.505
		c-0.627,0-1.115-0.18-1.467-0.54c-0.351-0.359-0.526-0.869-0.526-1.528c0-0.211,0.014-0.411,0.041-0.599
		c0.026-0.188,0.085-0.462,0.174-0.824l0.403,0.097c-0.083,0.322-0.124,0.583-0.124,0.784c0,0.537,0.135,0.955,0.403,1.254
		c0.269,0.299,0.643,0.449,1.122,0.449c0.545,0,1.087-0.132,1.628-0.397s0.902-0.591,1.085-0.978c-0.479-1.049-0.72-1.749-0.72-2.1
		c0-0.19,0.054-0.362,0.161-0.516s0.294-0.31,0.559-0.467c0.032,0.258,0.116,0.732,0.252,1.423l0.006,0.043
		c0.243,0.122,0.51,0.183,0.801,0.183c0.061,0,0.091,0.03,0.091,0.091v0.655c0,0.061-0.03,0.091-0.091,0.091
		c-0.248,0-0.47-0.045-0.666-0.134l0.016,0.317c0,0.451-0.144,0.883-0.43,1.294s-0.679,0.749-1.176,1.01
		C81.471,24.375,80.957,24.505,80.427,24.505z M81.303,18.495c-0.172,0.247-0.408,0.516-0.709,0.806
		c-0.326-0.258-0.59-0.496-0.79-0.714c0.376-0.376,0.632-0.645,0.769-0.806C80.805,18.035,81.048,18.273,81.303,18.495z"/>
	<path fill="#FFFFFF" stroke="#FFFFFF" stroke-width="0.2" stroke-miterlimit="10" d="M84.276,21.626
		c-0.061,0-0.092-0.03-0.092-0.091V20.88c0-0.061,0.031-0.091,0.092-0.091c0.279,0,0.515-0.067,0.706-0.201
		c0.191-0.135,0.357-0.339,0.497-0.615l0.221-0.44c0.282-0.602,0.559-1.026,0.829-1.273s0.567-0.371,0.89-0.371
		c0.215,0,0.429,0.131,0.642,0.392s0.385,0.598,0.516,1.01s0.196,0.809,0.196,1.192c0,0.226-0.042,0.431-0.124,0.615
		c-0.082,0.185-0.228,0.361-0.435,0.529c-0.441,0-0.909-0.061-1.405-0.183s-0.91-0.279-1.243-0.473
		c-0.172,0.233-0.359,0.4-0.564,0.502C84.798,21.576,84.556,21.626,84.276,21.626z M87.972,20.789
		c-0.015-0.455-0.101-0.89-0.258-1.305S87.4,18.86,87.247,18.86c-0.141,0-0.271,0.041-0.393,0.124s-0.243,0.209-0.365,0.381
		s-0.286,0.462-0.494,0.87C86.511,20.518,87.17,20.703,87.972,20.789z"/>
	<path fill="#FFFFFF" stroke="#FFFFFF" stroke-width="0.2" stroke-miterlimit="10" d="M94.782,21.197
		c-0.4-0.036-0.676-0.071-0.826-0.104c-0.15-0.034-0.308-0.083-0.471-0.146c-0.163-0.063-0.33-0.142-0.502-0.239
		s-0.302-0.19-0.39-0.279s-0.132-0.172-0.132-0.247c0-0.097,0.05-0.263,0.148-0.5s0.18-0.41,0.244-0.521
		c0.111-0.204,0.354-0.439,0.728-0.707c0.374-0.267,0.771-0.484,1.19-0.652l-0.038-0.301c0.254-0.229,0.521-0.421,0.8-0.575
		l0.103,3.572c0.333,0.193,0.714,0.29,1.144,0.29c0.062,0,0.092,0.03,0.092,0.091v0.655c0,0.061-0.03,0.091-0.092,0.091
		c-0.443,0-0.804-0.083-1.079-0.25c-0.275-0.166-0.435-0.402-0.478-0.706l-0.038-0.231L94.782,21.197z M92.999,19.671
		c0.294,0.25,0.62,0.417,0.979,0.5c0.357,0.083,0.753,0.127,1.187,0.134l-0.284-1.772l-0.006-0.021
		C93.997,18.812,93.372,19.199,92.999,19.671z"/>
	<path fill="#FFFFFF" stroke="#FFFFFF" stroke-width="0.2" stroke-miterlimit="10" d="M99.772,19.124c0.101,0,0.19,0.029,0.27,0.086
		c-0.133,0.319-0.249,0.585-0.35,0.8s-0.161,0.335-0.183,0.36c0.247,0.158,0.478,0.267,0.69,0.328s0.444,0.091,0.695,0.091
		c0.061,0,0.092,0.03,0.092,0.091v0.655c0,0.061-0.031,0.091-0.092,0.091c-0.677,0-1.257-0.213-1.74-0.639l-0.178,0.236
		c-0.074,0.083-0.341,0.17-0.797,0.263c-0.457,0.093-0.905,0.14-1.346,0.14c-0.061,0-0.092-0.03-0.092-0.091V20.88
		c0-0.061,0.031-0.091,0.092-0.091c0.455,0,0.841-0.02,1.157-0.059c0.317-0.04,0.541-0.105,0.672-0.199s0.323-0.385,0.577-0.875
		l0.193-0.354C99.499,19.183,99.612,19.124,99.772,19.124z M98.79,23.018c-0.133,0.211-0.35,0.462-0.65,0.752
		c-0.329-0.265-0.572-0.489-0.73-0.671c0.193-0.179,0.43-0.426,0.709-0.741C98.183,22.425,98.407,22.645,98.79,23.018z
		 M100.45,22.862c-0.133,0.208-0.354,0.457-0.661,0.747c-0.318-0.254-0.561-0.478-0.726-0.671c0.165-0.15,0.401-0.397,0.709-0.741
		C99.837,22.268,100.063,22.489,100.45,22.862z"/>
	<path fill="#FFFFFF" stroke="#FFFFFF" stroke-width="0.2" stroke-miterlimit="10" d="M101.065,21.626
		c-0.061,0-0.092-0.03-0.092-0.091V20.88c0-0.061,0.031-0.091,0.092-0.091c0.415,0,0.816-0.095,1.203-0.285
		c-0.097-0.773-0.213-2.167-0.35-4.179l-0.107-1.466c0.219-0.226,0.466-0.43,0.742-0.612c0.046,1.006,0.084,2.587,0.112,4.743
		l0.038,1.509c0.332,0.193,0.714,0.29,1.144,0.29c0.064,0,0.097,0.03,0.097,0.091v0.655c0,0.061-0.032,0.091-0.097,0.091
		c-0.537,0-0.958-0.131-1.263-0.392c-0.268,0.15-0.51,0.253-0.725,0.309C101.646,21.599,101.381,21.626,101.065,21.626z"/>
	<path fill="#FFFFFF" stroke="#FFFFFF" stroke-width="0.2" stroke-miterlimit="10" d="M103.904,21.626
		c-0.061,0-0.092-0.03-0.092-0.091V20.88c0-0.061,0.031-0.091,0.092-0.091c0.473,0,0.93-0.011,1.369-0.032
		c-0.175-0.115-0.328-0.272-0.459-0.473s-0.195-0.414-0.195-0.639c0-0.312,0.085-0.639,0.255-0.983s0.39-0.621,0.657-0.833
		c0.27-0.211,0.55-0.317,0.844-0.317c0.254,0,0.498,0.063,0.73,0.19c0.232,0.127,0.503,0.325,0.811,0.594l-0.193,0.349
		c-0.289-0.111-0.501-0.181-0.633-0.209c-0.133-0.029-0.278-0.043-0.436-0.043c-0.451,0-0.922,0.134-1.412,0.403
		c0,0.315,0.075,0.603,0.228,0.862c0.152,0.26,0.374,0.468,0.663,0.626c0.291,0.158,0.633,0.247,1.026,0.269
		c0.279-0.057,0.546-0.126,0.8-0.207c0.255-0.08,0.611-0.21,1.069-0.389c0.101,0.093,0.15,0.224,0.15,0.392l-0.011,0.113
		c-0.043,0.247-0.195,0.403-0.457,0.467c-0.873,0.218-1.534,0.368-1.981,0.448c-0.447,0.081-0.907,0.143-1.378,0.186
		S104.398,21.626,103.904,21.626z"/>
	<path fill="#FFFFFF" stroke="#FFFFFF" stroke-width="0.2" stroke-miterlimit="10" d="M117.337,22.223l-0.279-1.778
		c-0.311-1.862-0.516-3.159-0.614-3.892c-0.099-0.732-0.147-1.214-0.147-1.447c0-0.247,0.057-0.438,0.172-0.575
		c0.114-0.136,0.297-0.231,0.547-0.285c0.012,0.046,0.021,0.089,0.033,0.129c0.01,0.04,0.13,0.432,0.359,1.176l-0.258,0.226
		l0.021,0.172l0.359,3.26c0.064,0.476,0.113,0.933,0.146,1.37l0.005,0.021c0.236,0.125,0.506,0.188,0.807,0.188
		c0.061,0,0.091,0.03,0.091,0.091v0.655c0,0.061-0.03,0.091-0.091,0.091c-0.266,0-0.516-0.059-0.752-0.177l0.01,0.36
		c0,0.455-0.141,0.888-0.424,1.3s-0.672,0.748-1.166,1.007c-0.494,0.26-1.004,0.39-1.53,0.39c-0.627,0-1.115-0.18-1.466-0.54
		c-0.352-0.359-0.527-0.869-0.527-1.528c0-0.211,0.014-0.411,0.041-0.599c0.026-0.188,0.085-0.462,0.174-0.824l0.403,0.097
		c-0.082,0.322-0.124,0.583-0.124,0.784c0,0.537,0.135,0.955,0.403,1.254c0.269,0.299,0.643,0.449,1.122,0.449
		c0.348,0,0.709-0.061,1.086-0.183c0.375-0.122,0.707-0.288,0.993-0.5S117.22,22.473,117.337,22.223z"/>
	<path fill="#FFFFFF" stroke="#FFFFFF" stroke-width="0.2" stroke-miterlimit="10" d="M127.188,21.626
		c-0.312,0-0.621-0.063-0.929-0.188c-0.309-0.125-0.561-0.29-0.758-0.494c-0.326,0.211-0.725,0.378-1.195,0.5
		s-0.94,0.183-1.41,0.183c-0.529,0-1.074-0.057-1.633-0.172s-1.002-0.263-1.332-0.446l-0.188,0.215
		c-0.243,0.269-0.645,0.403-1.203,0.403c-0.061,0-0.092-0.03-0.092-0.091V20.88c0-0.061,0.031-0.091,0.092-0.091
		c0.329,0,0.591-0.06,0.784-0.18c0.193-0.12,0.389-0.352,0.585-0.696l0.172-0.306c0.076-0.129,0.192-0.193,0.35-0.193
		c0.104,0,0.189,0.034,0.258,0.102c-0.154,0.373-0.264,0.626-0.328,0.763c0.18,0.086,0.362,0.158,0.549,0.215
		c1.403-1.862,2.6-2.793,3.588-2.793c0.207,0,0.463,0.084,0.768,0.252s0.576,0.385,0.816,0.65s0.359,0.498,0.359,0.698
		c0,0.444-0.141,0.84-0.424,1.187c0.333,0.201,0.724,0.301,1.171,0.301c0.064,0,0.097,0.03,0.097,0.091v0.655
		C127.284,21.596,127.252,21.626,127.188,21.626z M123.009,20.789c0.956,0,1.936-0.313,2.938-0.94
		c-0.222-0.387-0.488-0.688-0.8-0.905c-0.312-0.217-0.619-0.325-0.924-0.325c-0.348,0-0.761,0.169-1.241,0.508
		c-0.479,0.338-1,0.838-1.563,1.501C121.992,20.735,122.521,20.789,123.009,20.789z"/>
	<path fill="#FFFFFF" stroke="#FFFFFF" stroke-width="0.2" stroke-miterlimit="10" d="M127.243,21.626
		c-0.061,0-0.092-0.03-0.092-0.091V20.88c0-0.061,0.031-0.091,0.092-0.091c1.078,0,1.925-0.093,2.541-0.279l0.611-0.209
		c0.416-0.158,0.785-0.265,1.107-0.322c-0.287-0.143-0.57-0.326-0.85-0.548c-0.297-0.233-0.537-0.395-0.722-0.486
		c-0.185-0.092-0.374-0.137-0.567-0.137c-0.351,0-0.666,0.089-0.945,0.269l-0.258,0.161c-0.107-0.107-0.16-0.25-0.16-0.43
		c0-0.276,0.121-0.498,0.365-0.666c0.243-0.168,0.563-0.252,0.961-0.252c0.232,0,0.468,0.05,0.706,0.15s0.515,0.265,0.83,0.494
		c0.383,0.283,0.709,0.495,0.978,0.637c0.269,0.141,0.541,0.242,0.816,0.303s0.677,0.091,1.203,0.091l-0.419,0.811
		c-0.229-0.029-0.435-0.048-0.618-0.059l-0.037-0.005l-0.226,0.005c-0.254,0-0.497,0.038-0.728,0.113
		c-0.231,0.075-0.59,0.238-1.077,0.489c-0.548,0.283-1.043,0.472-1.485,0.566C128.828,21.579,128.152,21.626,127.243,21.626z"/>
	<path fill="#FFFFFF" stroke="#FFFFFF" stroke-width="0.2" stroke-miterlimit="10" d="M135.254,17.963v0.688
		c0,0.709-0.025,1.67-0.075,2.884l-0.505,0.091c-0.047-2.571-0.146-4.705-0.301-6.402l-0.005-0.14c0-0.233,0.058-0.418,0.174-0.556
		c0.116-0.138,0.3-0.232,0.551-0.282c0.011,0.046,0.021,0.089,0.032,0.129s0.131,0.432,0.36,1.176l-0.296,0.252l0.005,0.054
		C135.234,16.646,135.254,17.348,135.254,17.963z"/>
</g>
</svg>
