<?xml version="1.0" encoding="utf-8"?>
<!-- Generator: Adobe Illustrator 19.0.0, SVG Export Plug-In . SVG Version: 6.00 Build 0)  -->
<svg version="1.1" id="Layer_1" xmlns="http://www.w3.org/2000/svg" xmlns:xlink="http://www.w3.org/1999/xlink" x="0px" y="0px"
	 viewBox="0 0 432 432" style="enable-background:new 0 0 432 432;" xml:space="preserve">
<style type="text/css">
	.st0{fill:#FFFC00;}
	.st1{fill:#FFFFFF;}
	.st2{fill:#030303;}
</style>
<g>
	<path class="st0" d="M363.2,0c38,0,68.8,30.8,68.8,68.8v294.3c0,38-30.8,68.8-68.8,68.8H68.8C30.8,432,0,401.2,0,363.2V68.8
		C0,30.8,30.8,0,68.8,0H363.2z"/>
	<g>
		<g>
			<g>
				<path class="st1" d="M217.6,364.5c-0.8,0-1.6,0-2.4-0.1h0c-0.5,0-1,0.1-1.6,0.1c-18.7,0-30.8-8.5-42.4-16.7
					c-8-5.7-15.6-11-24.6-12.5c-4.4-0.7-8.7-1.1-12.9-1.1c-7.6,0-13.5,1.2-17.9,2c-2.6,0.5-4.9,1-6.7,1c-1.8,0-3.8-0.4-4.6-3.3
					c-0.7-2.5-1.3-5-1.8-7.3c-1.3-6.1-2.3-9.8-4.8-10.2c-29.7-4.6-38.2-10.9-40.1-15.3c-0.3-0.6-0.4-1.3-0.5-1.9
					c-0.1-1.7,1.1-3.2,2.8-3.5c45.7-7.5,66.2-54.2,67.1-56.2c0-0.1,0-0.1,0.1-0.2c2.8-5.7,3.3-10.6,1.6-14.6
					c-3.1-7.4-13.4-10.6-20.1-12.8c-1.7-0.5-3.2-1-4.5-1.5c-13.5-5.3-14.6-10.8-14.1-13.6c0.9-4.8,7.3-8.1,12.4-8.1
					c1.4,0,2.7,0.3,3.7,0.7c6.1,2.8,11.6,4.3,16.3,4.3c6.5,0,9.4-2.7,9.7-3.1c-0.2-3.1-0.4-6.3-0.6-9.7c-1.4-21.6-3-48.5,3.8-63.8
					c20.5-45.9,63.9-49.5,76.8-49.5c0.3,0,5.6-0.1,5.6-0.1l0.8,0c12.9,0,56.4,3.6,76.9,49.5c6.8,15.3,5.1,42.2,3.8,63.8l-0.1,0.9
					c-0.2,3-0.4,5.9-0.5,8.7c0.3,0.3,2.9,2.9,8.9,3.1h0c4.5-0.2,9.7-1.6,15.3-4.3c1.7-0.8,3.5-0.9,4.8-0.9c1.9,0,3.9,0.4,5.5,1
					l0.1,0c4.6,1.6,7.6,4.8,7.7,8.2c0.1,3.2-2.4,7.9-14.2,12.6c-1.2,0.5-2.8,1-4.5,1.5c-6.8,2.2-17,5.4-20.1,12.8
					c-1.7,4-1.2,9,1.6,14.6c0,0.1,0.1,0.1,0.1,0.2c0.9,2,21.3,48.7,67.1,56.2c1.7,0.3,2.9,1.8,2.8,3.5c0,0.6-0.2,1.3-0.5,1.9
					c-1.9,4.4-10.4,10.7-40.1,15.3c-2.4,0.4-3.4,3.5-4.8,10.2c-0.5,2.4-1.1,4.8-1.8,7.3c-0.6,2.2-2,3.2-4.3,3.2H322
					c-1.6,0-3.8-0.3-6.7-0.8c-5-1-10.7-1.9-17.9-1.9c-4.2,0-8.5,0.4-12.9,1.1c-8.9,1.5-16.5,6.8-24.5,12.5
					C248.4,356,236.3,364.5,217.6,364.5z"/>
				<path class="st2" d="M218.7,70.8c12.2,0,54.1,3.3,73.9,47.6c6.5,14.6,4.8,41,3.5,62.2c-0.2,3.4-0.4,6.6-0.6,9.7l-0.1,1.3l0.9,1
					c0.4,0.4,3.7,3.9,11.3,4.2l0.1,0l0.1,0c5-0.2,10.6-1.7,16.7-4.6c0.9-0.4,2.1-0.6,3.3-0.6c1.4,0,3,0.3,4.2,0.8l0.2,0.1
					c3.2,1.1,5.4,3.2,5.5,5.1c0,1.1-0.8,5-12.1,9.4c-1.1,0.4-2.6,0.9-4.2,1.4c-7.4,2.3-18.5,5.9-22.2,14.7c-2.1,5-1.5,10.8,1.7,17.4
					c1.3,3.1,22.3,50.4,69.6,58.2c0,0.2-0.1,0.5-0.2,0.8c-0.8,1.9-5.9,8.4-37.6,13.3c-5,0.8-6.2,6.3-7.6,12.8
					c-0.5,2.3-1,4.6-1.7,7.1c-0.2,0.7-0.3,0.8-1,0.8c-0.1,0-0.2,0-0.4,0l0,0c-1.4,0-3.5-0.3-6-0.8c-4.5-0.9-10.6-2-18.5-2
					c-4.4,0-8.9,0.4-13.4,1.1c-9.7,1.6-17.6,7.2-25.9,13.1c-11.2,7.9-22.8,16.1-40.5,16.1c-0.8,0-1.5,0-2.3-0.1l-0.2,0l-0.2,0
					c-0.4,0-0.9,0.1-1.3,0.1c-17.7,0-29.3-8.2-40.5-16.1c-8.3-5.9-16.2-11.5-25.9-13.1c-4.5-0.8-9.1-1.1-13.4-1.1
					c-7.9,0-14,1.2-18.5,2.1c-2.5,0.5-4.6,0.9-6,0.9c-1.1,0-1.2-0.1-1.4-0.9c-0.7-2.4-1.2-4.8-1.7-7.1c-1.4-6.5-2.6-12-7.6-12.8
					c-31.7-4.9-36.8-11.4-37.6-13.3c-0.1-0.3-0.2-0.5-0.2-0.8c47.3-7.8,68.3-55.1,69.6-58.2c3.2-6.6,3.8-12.4,1.7-17.4
					c-3.7-8.8-14.9-12.3-22.2-14.7c-1.7-0.5-3.1-1-4.2-1.4c-9.6-3.8-12.5-7.6-12-9.9c0.5-2.7,5.1-5.4,9.1-5.4c0.9,0,1.7,0.1,2.3,0.4
					c6.5,3.1,12.5,4.6,17.7,4.6c8.2,0,11.9-3.8,12.3-4.3l0.9-1l-0.1-1.3c-0.2-3.1-0.4-6.4-0.6-9.7c-1.3-21.2-3-47.6,3.5-62.2
					c19.7-44.1,61.4-47.5,73.7-47.5c0.3,0,5.7-0.1,5.7-0.1C218.2,70.8,218.5,70.8,218.7,70.8 M218.7,64.1L218.7,64.1
					c-0.3,0-0.6,0-0.8,0l0,0c0,0-5.2,0.1-5.6,0.1c-13.3,0-58.5,3.7-79.8,51.5c-7.2,16.1-5.5,43.4-4.1,65.3c0.2,2.6,0.3,5.3,0.5,7.9
					c-1.1,0.6-3.1,1.4-6.3,1.4c-4.2,0-9.2-1.3-14.9-4c-1.5-0.7-3.2-1.1-5.1-1.1c-6.6,0-14.5,4.3-15.7,10.8
					c-0.9,4.7,1.2,11.4,16.2,17.4c1.4,0.5,3,1,4.7,1.6c6.2,2,15.5,4.9,18.1,10.9c1.3,3.1,0.8,7.1-1.6,11.8c-0.1,0.1-0.1,0.2-0.1,0.3
					c-0.8,1.9-20.6,47-64.5,54.2c-3.4,0.6-5.8,3.6-5.6,7c0.1,1,0.3,2,0.7,3c3.3,7.7,17.2,13.4,42.5,17.3c0.8,1.1,1.7,5.2,2.3,7.7
					c0.5,2.4,1.1,4.9,1.9,7.6c0.8,2.6,2.7,5.7,7.8,5.7c2.1,0,4.5-0.5,7.3-1c4.2-0.8,10-2,17.2-2c4,0,8.2,0.3,12.4,1
					c8.2,1.4,15.1,6.3,23.1,11.9c11.5,8.1,24.5,17.4,44.4,17.4c0.5,0,1.1,0,1.6-0.1c0.6,0,1.5,0.1,2.4,0.1
					c19.8,0,32.9-9.2,44.4-17.4c8.1-5.7,15-10.6,23.2-12c4.2-0.7,8.3-1,12.3-1c6.9,0,12.4,0.9,17.2,1.8c3.1,0.6,5.5,0.9,7.3,0.9
					l0.2,0h0.2c3.8,0,6.4-2,7.5-5.6c0.8-2.6,1.3-5,1.9-7.5c0.5-2.5,1.4-6.5,2.3-7.6c25.3-3.9,39.2-9.6,42.5-17.2c0.4-1,0.7-2,0.7-3
					c0.2-3.4-2.2-6.4-5.6-7C327.6,285,307.9,240,307,238c0-0.1-0.1-0.2-0.2-0.3c-2.3-4.8-2.9-8.7-1.6-11.8c2.5-6,11.9-8.9,18.1-10.9
					c1.7-0.5,3.4-1.1,4.7-1.6c11-4.3,16.4-9.6,16.3-15.8c-0.1-4.8-3.9-9.1-9.8-11.3l0,0c-2-0.8-4.4-1.3-6.7-1.3
					c-1.6,0-4,0.2-6.2,1.3c-5.2,2.4-9.9,3.8-13.9,3.9c-2.7-0.1-4.4-0.8-5.4-1.4c0.1-2.2,0.3-4.5,0.4-6.9l0.1-0.9
					c1.4-22,3.1-49.3-4.1-65.4C277.4,67.8,232.1,64.1,218.7,64.1L218.7,64.1z"/>
			</g>
		</g>
	</g>
</g>
</svg>
