<?xml version="1.0" encoding="utf-8"?>
<!-- Generator: Adobe Illustrator 19.0.0, SVG Export Plug-In . SVG Version: 6.00 Build 0)  -->
<svg version="1.1" id="Layer_1" xmlns="http://www.w3.org/2000/svg" xmlns:xlink="http://www.w3.org/1999/xlink" x="0px" y="0px"
	 viewBox="0 0 360 338.3" style="enable-background:new 0 0 360 338.3;" xml:space="preserve">
<style type="text/css">
	.st0{fill:#FFFFFF;}
</style>
<g>
	<g>
		<g>
			<path class="st0" d="M182.2,334.6c-0.9,0-1.8,0-2.7-0.1h0c-0.6,0-1.2,0.1-1.8,0.1c-20.9,0-34.3-9.5-47.3-18.6
				c-9-6.3-17.4-12.3-27.3-14c-4.9-0.8-9.7-1.2-14.4-1.2c-8.4,0-15.1,1.3-19.9,2.2c-2.9,0.6-5.5,1.1-7.4,1.1c-2,0-4.2-0.4-5.2-3.7
				c-0.8-2.8-1.4-5.5-2-8.2c-1.5-6.8-2.5-11-5.4-11.4c-33.1-5.1-42.6-12.1-44.7-17c-0.3-0.7-0.5-1.4-0.5-2.1
				c-0.1-1.9,1.2-3.6,3.1-3.9c50.9-8.4,73.8-60.4,74.7-62.6c0-0.1,0.1-0.1,0.1-0.2c3.1-6.3,3.7-11.8,1.8-16.3
				c-3.5-8.2-14.9-11.9-22.4-14.2c-1.8-0.6-3.6-1.1-5-1.7c-15.1-6-16.3-12.1-15.7-15.2c1-5.3,8.1-9,13.8-9c1.6,0,3,0.3,4.1,0.8
				c6.8,3.2,12.9,4.8,18.1,4.8c7.3,0,10.5-3.1,10.8-3.5c-0.2-3.4-0.4-7-0.6-10.8c-1.5-24.1-3.4-54,4.2-71.1
				c22.8-51.2,71.2-55.2,85.5-55.2c0.4,0,6.3-0.1,6.3-0.1l0.8,0c14.3,0,62.8,4,85.7,55.2c7.6,17.1,5.7,47,4.2,71.1l-0.1,1
				c-0.2,3.3-0.4,6.6-0.6,9.7c0.4,0.4,3.3,3.2,9.9,3.4h0c5-0.2,10.8-1.8,17.1-4.8c1.9-0.9,3.9-1,5.3-1c2.1,0,4.3,0.4,6.1,1.2l0.1,0
				c5.1,1.8,8.5,5.4,8.5,9.1c0.1,3.5-2.6,8.8-15.8,14c-1.4,0.5-3.1,1.1-5,1.7c-7.6,2.4-18.9,6-22.4,14.2c-1.9,4.5-1.3,10,1.8,16.3
				c0,0.1,0.1,0.1,0.1,0.2c0.9,2.2,23.8,54.2,74.7,62.6c1.9,0.3,3.2,2,3.1,3.9c0,0.7-0.2,1.4-0.5,2.1c-2.1,4.9-11.6,11.9-44.7,17
				c-2.7,0.4-3.8,3.9-5.4,11.3c-0.6,2.7-1.2,5.3-2,8.1c-0.7,2.4-2.2,3.5-4.7,3.5h-0.4c-1.8,0-4.3-0.3-7.4-0.9
				c-5.6-1.1-11.9-2.1-19.9-2.1c-4.7,0-9.5,0.4-14.4,1.2c-9.9,1.7-18.4,7.6-27.3,13.9C216.5,325.2,203.1,334.6,182.2,334.6z"/>
			<path class="st0" d="M183.5,7.5c13.6,0,60.3,3.6,82.3,53c7.2,16.2,5.4,45.7,3.9,69.3c-0.2,3.7-0.5,7.4-0.7,10.9l-0.1,1.5l1,1.1
				c0.4,0.4,4.2,4.4,12.5,4.7l0.1,0l0.1,0c5.5-0.2,11.8-1.9,18.6-5.1c1-0.5,2.3-0.7,3.7-0.7c1.6,0,3.3,0.3,4.7,0.9l0.2,0.1
				c3.6,1.2,6.1,3.6,6.1,5.7c0,1.2-0.9,5.5-13.5,10.5c-1.2,0.5-2.9,1-4.7,1.6c-8.2,2.6-20.6,6.5-24.7,16.3
				c-2.3,5.5-1.7,12.1,1.9,19.4c1.5,3.5,24.9,56.2,77.5,64.8c0,0.2-0.1,0.5-0.2,0.8c-0.9,2.1-6.6,9.4-41.9,14.8
				c-5.5,0.9-6.9,7-8.4,14.2c-0.6,2.6-1.1,5.2-1.9,7.9c-0.2,0.8-0.3,0.9-1.2,0.9c-0.1,0-0.3,0-0.4,0l0,0c-1.6,0-3.9-0.3-6.7-0.9
				c-5-1-11.9-2.2-20.6-2.2c-4.9,0-9.9,0.4-15,1.3c-10.8,1.8-19.6,8-28.9,14.6c-12.5,8.8-25.4,18-45.1,18c-0.9,0-1.7,0-2.5-0.1
				l-0.2,0l-0.2,0c-0.5,0-1,0.1-1.5,0.1c-19.7,0-32.6-9.1-45.1-18c-9.3-6.6-18.1-12.8-28.9-14.6c-5.1-0.8-10.1-1.3-15-1.3
				c-8.8,0-15.6,1.3-20.6,2.3c-2.8,0.5-5.1,1-6.7,1c-1.3,0-1.3-0.1-1.6-1c-0.8-2.7-1.4-5.4-1.9-7.9c-1.6-7.2-2.9-13.4-8.4-14.3
				c-35.3-5.4-41-12.7-41.9-14.8c-0.1-0.3-0.2-0.6-0.2-0.9c52.6-8.7,76-61.4,77.5-64.9c3.6-7.3,4.3-13.9,1.9-19.4
				c-4.2-9.8-16.5-13.7-24.7-16.4c-1.9-0.6-3.5-1.1-4.7-1.6c-10.6-4.2-13.9-8.4-13.4-11c0.6-3,5.7-6,10.2-6c1,0,1.9,0.2,2.5,0.5
				c7.3,3.4,13.9,5.1,19.7,5.1c9.2,0,13.2-4.3,13.7-4.7l1-1.1l-0.1-1.5c-0.2-3.5-0.4-7.1-0.7-10.9c-1.5-23.6-3.3-53.1,3.9-69.3
				c21.9-49.2,68.4-52.9,82.1-52.9c0.3,0,6.3-0.1,6.3-0.1C182.9,7.5,183.2,7.5,183.5,7.5 M183.5,0L183.5,0c-0.3,0-0.6,0-0.9,0l0,0
				c0,0-5.8,0.1-6.2,0.1c-14.9,0-65.2,4.1-88.9,57.4c-8,17.9-6.1,48.3-4.5,72.8c0.2,2.9,0.4,5.9,0.5,8.8c-1.2,0.7-3.5,1.5-7,1.5
				c-4.7,0-10.3-1.5-16.6-4.4c-1.7-0.8-3.6-1.2-5.7-1.2c-7.3,0-16.1,4.8-17.5,12c-1,5.2,1.3,12.8,18,19.3c1.5,0.6,3.3,1.2,5.2,1.8
				c6.9,2.2,17.3,5.5,20.1,12.1c1.5,3.4,0.9,7.9-1.7,13.2c-0.1,0.1-0.1,0.2-0.2,0.4c-0.9,2.1-23,52.4-71.9,60.4
				c-3.8,0.6-6.5,4-6.2,7.8c0.1,1.1,0.3,2.3,0.8,3.4c3.7,8.6,19.2,14.9,47.4,19.3c0.9,1.3,1.9,5.8,2.5,8.5c0.6,2.7,1.2,5.5,2.1,8.4
				c0.8,2.9,3.1,6.4,8.7,6.4c2.3,0,5-0.5,8.1-1.1c4.7-0.9,11.1-2.2,19.2-2.2c4.5,0,9.1,0.4,13.8,1.2c9.1,1.5,16.8,7,25.8,13.3
				c12.8,9.1,27.3,19.3,49.4,19.3c0.6,0,1.2,0,1.8-0.1c0.7,0,1.6,0.1,2.6,0.1c22.1,0,36.6-10.3,49.4-19.3c9-6.3,16.7-11.8,25.8-13.3
				c4.7-0.8,9.3-1.2,13.8-1.2c7.7,0,13.8,1,19.2,2c3.4,0.7,6.1,1,8.1,1l0.2,0h0.2c4.2,0,7.2-2.2,8.3-6.2c0.8-2.9,1.5-5.6,2.1-8.4
				c0.6-2.7,1.6-7.2,2.5-8.5c28.2-4.4,43.7-10.7,47.4-19.2c0.5-1.1,0.7-2.2,0.8-3.4c0.2-3.8-2.5-7.2-6.2-7.8
				c-48.9-8.1-71-58.3-71.9-60.4c-0.1-0.1-0.1-0.2-0.2-0.4c-2.6-5.3-3.2-9.7-1.7-13.2c2.8-6.7,13.2-10,20.1-12.1
				c1.9-0.6,3.7-1.2,5.2-1.8c12.2-4.8,18.3-10.7,18.2-17.6c-0.1-5.4-4.3-10.2-11-12.6l0,0c-2.2-0.9-4.9-1.4-7.5-1.4
				c-1.8,0-4.4,0.2-6.9,1.4c-5.8,2.7-11,4.2-15.5,4.4c-3-0.1-4.9-0.9-6-1.5c0.1-2.5,0.3-5,0.5-7.7l0.1-1c1.5-24.5,3.5-54.9-4.5-72.8
				C248.8,4.1,198.4,0,183.5,0L183.5,0z"/>
		</g>
	</g>
</g>
</svg>
